<mxfile host="app.diagrams.net" modified="2024-02-24T18:52:13.584Z" agent="Mozilla/5.0 (Windows NT 10.0; Win64; x64) AppleWebKit/537.36 (KHTML, like Gecko) Chrome/121.0.0.0 Safari/537.36" etag="4jbAlXI5bMX-OPHZluIJ" version="23.1.6" type="device">
  <diagram name="Pagina-1" id="2GEOO4kI5Y_BIrsf5pEo">
    <mxGraphModel dx="1747" dy="1472" grid="1" gridSize="10" guides="1" tooltips="1" connect="1" arrows="1" fold="1" page="1" pageScale="1" pageWidth="827" pageHeight="1169" math="0" shadow="0">
      <root>
        <mxCell id="0" />
        <mxCell id="1" parent="0" />
        <mxCell id="4CucYcLi7qgc71mj-M3i-10" value="Cliente(Supermarket)" style="swimlane;fontStyle=1;align=center;verticalAlign=top;childLayout=stackLayout;horizontal=1;startSize=26;horizontalStack=0;resizeParent=1;resizeParentMax=0;resizeLast=0;collapsible=1;marginBottom=0;whiteSpace=wrap;html=1;" parent="1" vertex="1">
          <mxGeometry x="-140" y="150" width="480" height="326" as="geometry" />
        </mxCell>
        <mxCell id="4CucYcLi7qgc71mj-M3i-17" value="- nome: string" style="text;strokeColor=none;fillColor=none;align=left;verticalAlign=top;spacingLeft=4;spacingRight=4;overflow=hidden;rotatable=0;points=[[0,0.5],[1,0.5]];portConstraint=eastwest;whiteSpace=wrap;html=1;" parent="4CucYcLi7qgc71mj-M3i-10" vertex="1">
          <mxGeometry y="26" width="480" height="26" as="geometry" />
        </mxCell>
        <mxCell id="4CucYcLi7qgc71mj-M3i-18" value="- cognome: string" style="text;strokeColor=none;fillColor=none;align=left;verticalAlign=top;spacingLeft=4;spacingRight=4;overflow=hidden;rotatable=0;points=[[0,0.5],[1,0.5]];portConstraint=eastwest;whiteSpace=wrap;html=1;" parent="4CucYcLi7qgc71mj-M3i-10" vertex="1">
          <mxGeometry y="52" width="480" height="26" as="geometry" />
        </mxCell>
        <mxCell id="4CucYcLi7qgc71mj-M3i-19" value="- carello: array" style="text;strokeColor=none;fillColor=none;align=left;verticalAlign=top;spacingLeft=4;spacingRight=4;overflow=hidden;rotatable=0;points=[[0,0.5],[1,0.5]];portConstraint=eastwest;whiteSpace=wrap;html=1;" parent="4CucYcLi7qgc71mj-M3i-10" vertex="1">
          <mxGeometry y="78" width="480" height="26" as="geometry" />
        </mxCell>
        <mxCell id="4CucYcLi7qgc71mj-M3i-20" value="- costo: float" style="text;strokeColor=none;fillColor=none;align=left;verticalAlign=top;spacingLeft=4;spacingRight=4;overflow=hidden;rotatable=0;points=[[0,0.5],[1,0.5]];portConstraint=eastwest;whiteSpace=wrap;html=1;" parent="4CucYcLi7qgc71mj-M3i-10" vertex="1">
          <mxGeometry y="104" width="480" height="26" as="geometry" />
        </mxCell>
        <mxCell id="4CucYcLi7qgc71mj-M3i-12" value="" style="line;strokeWidth=1;fillColor=none;align=left;verticalAlign=middle;spacingTop=-1;spacingLeft=3;spacingRight=3;rotatable=0;labelPosition=right;points=[];portConstraint=eastwest;strokeColor=inherit;" parent="4CucYcLi7qgc71mj-M3i-10" vertex="1">
          <mxGeometry y="130" width="480" height="8" as="geometry" />
        </mxCell>
        <mxCell id="nOn0qd3jOutAWCC7OBNA-1" value="-&amp;nbsp; __init__(nome: string, cognome: string, carello: array, costo: float, super.__initi__)&amp;nbsp;" style="text;strokeColor=none;fillColor=none;align=left;verticalAlign=top;spacingLeft=4;spacingRight=4;overflow=hidden;rotatable=0;points=[[0,0.5],[1,0.5]];portConstraint=eastwest;whiteSpace=wrap;html=1;" parent="4CucYcLi7qgc71mj-M3i-10" vertex="1">
          <mxGeometry y="138" width="480" height="26" as="geometry" />
        </mxCell>
        <mxCell id="4CucYcLi7qgc71mj-M3i-16" value="+ GetNome(): string" style="text;strokeColor=none;fillColor=none;align=left;verticalAlign=top;spacingLeft=4;spacingRight=4;overflow=hidden;rotatable=0;points=[[0,0.5],[1,0.5]];portConstraint=eastwest;whiteSpace=wrap;html=1;" parent="4CucYcLi7qgc71mj-M3i-10" vertex="1">
          <mxGeometry y="164" width="480" height="26" as="geometry" />
        </mxCell>
        <mxCell id="4CucYcLi7qgc71mj-M3i-21" value="+ GetCognome(): string" style="text;strokeColor=none;fillColor=none;align=left;verticalAlign=top;spacingLeft=4;spacingRight=4;overflow=hidden;rotatable=0;points=[[0,0.5],[1,0.5]];portConstraint=eastwest;whiteSpace=wrap;html=1;" parent="4CucYcLi7qgc71mj-M3i-10" vertex="1">
          <mxGeometry y="190" width="480" height="26" as="geometry" />
        </mxCell>
        <mxCell id="4CucYcLi7qgc71mj-M3i-22" value="+ Get_Carrello(): array&amp;nbsp;" style="text;strokeColor=none;fillColor=none;align=left;verticalAlign=top;spacingLeft=4;spacingRight=4;overflow=hidden;rotatable=0;points=[[0,0.5],[1,0.5]];portConstraint=eastwest;whiteSpace=wrap;html=1;" parent="4CucYcLi7qgc71mj-M3i-10" vertex="1">
          <mxGeometry y="216" width="480" height="26" as="geometry" />
        </mxCell>
        <mxCell id="4CucYcLi7qgc71mj-M3i-13" value="+ GetCosto(): float&lt;br&gt;&lt;br&gt;+ SetCosto(costo):void" style="text;strokeColor=none;fillColor=none;align=left;verticalAlign=top;spacingLeft=4;spacingRight=4;overflow=hidden;rotatable=0;points=[[0,0.5],[1,0.5]];portConstraint=eastwest;whiteSpace=wrap;html=1;" parent="4CucYcLi7qgc71mj-M3i-10" vertex="1">
          <mxGeometry y="242" width="480" height="58" as="geometry" />
        </mxCell>
        <mxCell id="NJRzCC06LLtaf6UxLzBM-1" value="+ run():void" style="text;strokeColor=none;fillColor=none;align=left;verticalAlign=top;spacingLeft=4;spacingRight=4;overflow=hidden;rotatable=0;points=[[0,0.5],[1,0.5]];portConstraint=eastwest;whiteSpace=wrap;html=1;" vertex="1" parent="4CucYcLi7qgc71mj-M3i-10">
          <mxGeometry y="300" width="480" height="26" as="geometry" />
        </mxCell>
        <mxCell id="NJRzCC06LLtaf6UxLzBM-4" style="edgeStyle=orthogonalEdgeStyle;rounded=0;orthogonalLoop=1;jettySize=auto;html=1;entryX=1;entryY=0.5;entryDx=0;entryDy=0;" edge="1" parent="1" source="4CucYcLi7qgc71mj-M3i-23" target="4CucYcLi7qgc71mj-M3i-16">
          <mxGeometry relative="1" as="geometry" />
        </mxCell>
        <mxCell id="4CucYcLi7qgc71mj-M3i-23" value="Supermarket(Thread)" style="swimlane;fontStyle=1;align=center;verticalAlign=top;childLayout=stackLayout;horizontal=1;startSize=26;horizontalStack=0;resizeParent=1;resizeParentMax=0;resizeLast=0;collapsible=1;marginBottom=0;whiteSpace=wrap;html=1;" parent="1" vertex="1">
          <mxGeometry x="464" y="140" width="316" height="372" as="geometry" />
        </mxCell>
        <mxCell id="4CucYcLi7qgc71mj-M3i-24" value="-negozio: array" style="text;strokeColor=none;fillColor=none;align=left;verticalAlign=top;spacingLeft=4;spacingRight=4;overflow=hidden;rotatable=0;points=[[0,0.5],[1,0.5]];portConstraint=eastwest;whiteSpace=wrap;html=1;" parent="4CucYcLi7qgc71mj-M3i-23" vertex="1">
          <mxGeometry y="26" width="316" height="26" as="geometry" />
        </mxCell>
        <mxCell id="4CucYcLi7qgc71mj-M3i-27" value="-prodotti_nome: array" style="text;strokeColor=none;fillColor=none;align=left;verticalAlign=top;spacingLeft=4;spacingRight=4;overflow=hidden;rotatable=0;points=[[0,0.5],[1,0.5]];portConstraint=eastwest;whiteSpace=wrap;html=1;" parent="4CucYcLi7qgc71mj-M3i-23" vertex="1">
          <mxGeometry y="52" width="316" height="26" as="geometry" />
        </mxCell>
        <mxCell id="4CucYcLi7qgc71mj-M3i-25" value="-filePathJson = string" style="text;strokeColor=none;fillColor=none;align=left;verticalAlign=top;spacingLeft=4;spacingRight=4;overflow=hidden;rotatable=0;points=[[0,0.5],[1,0.5]];portConstraint=eastwest;whiteSpace=wrap;html=1;" parent="4CucYcLi7qgc71mj-M3i-23" vertex="1">
          <mxGeometry y="78" width="316" height="26" as="geometry" />
        </mxCell>
        <mxCell id="4CucYcLi7qgc71mj-M3i-26" value="-filePathXml = string" style="text;strokeColor=none;fillColor=none;align=left;verticalAlign=top;spacingLeft=4;spacingRight=4;overflow=hidden;rotatable=0;points=[[0,0.5],[1,0.5]];portConstraint=eastwest;whiteSpace=wrap;html=1;" parent="4CucYcLi7qgc71mj-M3i-23" vertex="1">
          <mxGeometry y="104" width="316" height="26" as="geometry" />
        </mxCell>
        <mxCell id="4CucYcLi7qgc71mj-M3i-29" value="" style="line;strokeWidth=1;fillColor=none;align=left;verticalAlign=middle;spacingTop=-1;spacingLeft=3;spacingRight=3;rotatable=0;labelPosition=right;points=[];portConstraint=eastwest;strokeColor=inherit;" parent="4CucYcLi7qgc71mj-M3i-23" vertex="1">
          <mxGeometry y="130" width="316" height="8" as="geometry" />
        </mxCell>
        <mxCell id="4CucYcLi7qgc71mj-M3i-30" value="-&amp;nbsp; &amp;nbsp;__init__(self)" style="text;strokeColor=none;fillColor=none;align=left;verticalAlign=top;spacingLeft=4;spacingRight=4;overflow=hidden;rotatable=0;points=[[0,0.5],[1,0.5]];portConstraint=eastwest;whiteSpace=wrap;html=1;" parent="4CucYcLi7qgc71mj-M3i-23" vertex="1">
          <mxGeometry y="138" width="316" height="26" as="geometry" />
        </mxCell>
        <mxCell id="nOn0qd3jOutAWCC7OBNA-5" value="-Sleep(n):void" style="text;strokeColor=none;fillColor=none;align=left;verticalAlign=top;spacingLeft=4;spacingRight=4;overflow=hidden;rotatable=0;points=[[0,0.5],[1,0.5]];portConstraint=eastwest;whiteSpace=wrap;html=1;" parent="4CucYcLi7qgc71mj-M3i-23" vertex="1">
          <mxGeometry y="164" width="316" height="26" as="geometry" />
        </mxCell>
        <mxCell id="4CucYcLi7qgc71mj-M3i-31" value="+Casse(): void" style="text;strokeColor=none;fillColor=none;align=left;verticalAlign=top;spacingLeft=4;spacingRight=4;overflow=hidden;rotatable=0;points=[[0,0.5],[1,0.5]];portConstraint=eastwest;whiteSpace=wrap;html=1;" parent="4CucYcLi7qgc71mj-M3i-23" vertex="1">
          <mxGeometry y="190" width="316" height="26" as="geometry" />
        </mxCell>
        <mxCell id="4CucYcLi7qgc71mj-M3i-32" value="+AggiungiProdottoAlcarrello():float" style="text;strokeColor=none;fillColor=none;align=left;verticalAlign=top;spacingLeft=4;spacingRight=4;overflow=hidden;rotatable=0;points=[[0,0.5],[1,0.5]];portConstraint=eastwest;whiteSpace=wrap;html=1;" parent="4CucYcLi7qgc71mj-M3i-23" vertex="1">
          <mxGeometry y="216" width="316" height="26" as="geometry" />
        </mxCell>
        <mxCell id="4CucYcLi7qgc71mj-M3i-37" value="+&amp;nbsp;ImportaDatiFileJson():void" style="text;strokeColor=none;fillColor=none;align=left;verticalAlign=top;spacingLeft=4;spacingRight=4;overflow=hidden;rotatable=0;points=[[0,0.5],[1,0.5]];portConstraint=eastwest;whiteSpace=wrap;html=1;" parent="4CucYcLi7qgc71mj-M3i-23" vertex="1">
          <mxGeometry y="242" width="316" height="26" as="geometry" />
        </mxCell>
        <mxCell id="4CucYcLi7qgc71mj-M3i-38" value="+SalvaPagamento(prezzo):void" style="text;strokeColor=none;fillColor=none;align=left;verticalAlign=top;spacingLeft=4;spacingRight=4;overflow=hidden;rotatable=0;points=[[0,0.5],[1,0.5]];portConstraint=eastwest;whiteSpace=wrap;html=1;" parent="4CucYcLi7qgc71mj-M3i-23" vertex="1">
          <mxGeometry y="268" width="316" height="26" as="geometry" />
        </mxCell>
        <mxCell id="4CucYcLi7qgc71mj-M3i-33" value="+&amp;nbsp;AzzeraFileXml():void" style="text;strokeColor=none;fillColor=none;align=left;verticalAlign=top;spacingLeft=4;spacingRight=4;overflow=hidden;rotatable=0;points=[[0,0.5],[1,0.5]];portConstraint=eastwest;whiteSpace=wrap;html=1;" parent="4CucYcLi7qgc71mj-M3i-23" vertex="1">
          <mxGeometry y="294" width="316" height="26" as="geometry" />
        </mxCell>
        <mxCell id="NJRzCC06LLtaf6UxLzBM-3" value="+RipongoProdotto(spesa_costo):float" style="text;strokeColor=none;fillColor=none;align=left;verticalAlign=top;spacingLeft=4;spacingRight=4;overflow=hidden;rotatable=0;points=[[0,0.5],[1,0.5]];portConstraint=eastwest;whiteSpace=wrap;html=1;" vertex="1" parent="4CucYcLi7qgc71mj-M3i-23">
          <mxGeometry y="320" width="316" height="26" as="geometry" />
        </mxCell>
        <mxCell id="NJRzCC06LLtaf6UxLzBM-2" value="+EventiCasuali(costo):float" style="text;strokeColor=none;fillColor=none;align=left;verticalAlign=top;spacingLeft=4;spacingRight=4;overflow=hidden;rotatable=0;points=[[0,0.5],[1,0.5]];portConstraint=eastwest;whiteSpace=wrap;html=1;" vertex="1" parent="4CucYcLi7qgc71mj-M3i-23">
          <mxGeometry y="346" width="316" height="26" as="geometry" />
        </mxCell>
      </root>
    </mxGraphModel>
  </diagram>
</mxfile>
